<svg fill="#25a5a7" xmlns="http://www.w3.org/2000/svg"  viewBox="0 0 24 24" width="512px" height="512px"><path d="M 7 1.25 C 6.0335 1.25 5.25 2.0335 5.25 3 L 5.25 19 L 5.25 21 C 5.25 21.9665 6.0335 22.75 7 22.75 L 17 22.75 C 17.9665 22.75 18.75 21.9665 18.75 21 L 18.75 19 L 18.75 3 C 18.75 2.0335 17.9665 1.25 17 1.25 L 7 1.25 z M 7 2.75 L 17 2.75 C 17.1381 2.75 17.25 2.86193 17.25 3 L 17.25 18.25 L 6.75 18.25 L 6.75 3 C 6.75 2.86193 6.86193 2.75 7 2.75 z M 8.5 6.75 C 8.08579 6.75 7.75 7.08579 7.75 7.5 L 7.75 9.6875 C 7.75 10.1017 8.08579 10.4375 8.5 10.4375 C 8.91421 10.4375 9.25 10.1017 9.25 9.6875 L 9.25 8.25 L 10.6875 8.25 C 11.1017 8.25 11.4375 7.91421 11.4375 7.5 C 11.4375 7.08579 11.1017 6.75 10.6875 6.75 L 8.5 6.75 z M 13.3125 6.75 C 12.8983 6.75 12.5625 7.08579 12.5625 7.5 C 12.5625 7.91421 12.8983 8.25 13.3125 8.25 L 14.75 8.25 L 14.75 9.6875 C 14.75 10.1017 15.0858 10.4375 15.5 10.4375 C 15.9142 10.4375 16.25 10.1017 16.25 9.6875 L 16.25 7.5 C 16.25 7.08579 15.9142 6.75 15.5 6.75 L 13.3125 6.75 z M 11 9.25 C 10.5858 9.25 10.25 9.58579 10.25 10 L 10.25 12 C 10.25 12.4142 10.5858 12.75 11 12.75 L 13 12.75 C 13.4142 12.75 13.75 12.4142 13.75 12 L 13.75 10 C 13.75 9.58579 13.4142 9.25 13 9.25 L 11 9.25 z M 11.75 10.75 L 12.25 10.75 L 12.25 11.25 L 11.75 11.25 L 11.75 10.75 z M 8.5 11.5625 C 8.08579 11.5625 7.75 11.8983 7.75 12.3125 L 7.75 14.5 C 7.75 14.9142 8.08579 15.25 8.5 15.25 L 10.6875 15.25 C 11.1017 15.25 11.4375 14.9142 11.4375 14.5 C 11.4375 14.0858 11.1017 13.75 10.6875 13.75 L 9.25 13.75 L 9.25 12.3125 C 9.25 11.8983 8.91421 11.5625 8.5 11.5625 z M 15.5 11.5625 C 15.0858 11.5625 14.75 11.8983 14.75 12.3125 L 14.75 13.75 L 13.3125 13.75 C 12.8983 13.75 12.5625 14.0858 12.5625 14.5 C 12.5625 14.9142 12.8983 15.25 13.3125 15.25 L 15.5 15.25 C 15.9142 15.25 16.25 14.9142 16.25 14.5 L 16.25 12.3125 C 16.25 11.8983 15.9142 11.5625 15.5 11.5625 z M 6.75 19.75 L 17.25 19.75 L 17.25 21 C 17.25 21.1381 17.1381 21.25 17 21.25 L 7 21.25 C 6.86193 21.25 6.75 21.1381 6.75 21 L 6.75 19.75 z"/></svg>