<svg xmlns="http://www.w3.org/2000/svg"  viewBox="0 0 128 128" width="256px" height="256px"><path d="M119,1H49c-1.7,0-3,1.3-3,3v24.8L8.9,43.2C7.8,43.6,7,44.8,7,46v78c0,1.7,1.3,3,3,3h11c1.7,0,3-1.3,3-3v-18 c0-1.7,1.3-3,3-3h6c1.7,0,3,1.3,3,3v18c0,1.7,1.3,3,3,3h4c1.7,0,3-1.3,3-3V50.5c0-1.2,0.7-2.4,1.8-2.9c2-0.9,4.2,0.6,4.2,2.7v76.5 c0,0,0,0.1,0,0.1h23c1.7,0,3-1.3,3-3v-18c0-1.7,1.3-3,3-3h6c1.7,0,3,1.3,3,3v18c0,1.7,1.3,3,3,3h26c1.7,0,3-1.3,3-3V4 C122,2.3,120.7,1,119,1z M33,86c0,1.7-1.3,3-3,3s-3-1.3-3-3v-4c0-1.7,1.3-3,3-3s3,1.3,3,3V86z M33,66c0,1.7-1.3,3-3,3s-3-1.3-3-3 v-4c0-1.7,1.3-3,3-3s3,1.3,3,3V66z M70,86c0,1.7-1.3,3-3,3s-3-1.3-3-3v-4c0-1.7,1.3-3,3-3s3,1.3,3,3V86z M70,66c0,1.7-1.3,3-3,3 s-3-1.3-3-3v-4c0-1.7,1.3-3,3-3s3,1.3,3,3V66z M70,46c0,1.7-1.3,3-3,3s-3-1.3-3-3v-4c0-1.7,1.3-3,3-3s3,1.3,3,3V46z M70,26 c0,1.7-1.3,3-3,3s-3-1.3-3-3v-4c0-1.7,1.3-3,3-3s3,1.3,3,3V26z M87,86c0,1.7-1.3,3-3,3s-3-1.3-3-3v-4c0-1.7,1.3-3,3-3s3,1.3,3,3V86 z M87,66c0,1.7-1.3,3-3,3s-3-1.3-3-3v-4c0-1.7,1.3-3,3-3s3,1.3,3,3V66z M87,46c0,1.7-1.3,3-3,3s-3-1.3-3-3v-4c0-1.7,1.3-3,3-3 s3,1.3,3,3V46z M87,26c0,1.7-1.3,3-3,3s-3-1.3-3-3v-4c0-1.7,1.3-3,3-3s3,1.3,3,3V26z M104,86c0,1.7-1.3,3-3,3s-3-1.3-3-3v-4 c0-1.7,1.3-3,3-3s3,1.3,3,3V86z M104,66c0,1.7-1.3,3-3,3s-3-1.3-3-3v-4c0-1.7,1.3-3,3-3s3,1.3,3,3V66z M104,46c0,1.7-1.3,3-3,3 s-3-1.3-3-3v-4c0-1.7,1.3-3,3-3s3,1.3,3,3V46z M104,26c0,1.7-1.3,3-3,3s-3-1.3-3-3v-4c0-1.7,1.3-3,3-3s3,1.3,3,3V26z"/></svg>