<svg fill="#25a5a7" xmlns="http://www.w3.org/2000/svg"  viewBox="0 0 68 68" width="512px" height="512px"><path d="M 8.6992188 2.1992188 C 4.9992188 2.1992188 2 5.2003906 2 8.9003906 L 2 59.099609 C 2 62.799609 4.9992188 65.800781 8.6992188 65.800781 L 59.199219 65.800781 C 62.899219 65.800781 65.900391 62.799609 65.900391 59.099609 L 65.900391 8.9003906 C 66.000391 5.2003906 63.000781 2.1992188 59.300781 2.1992188 L 8.6992188 2.1992188 z M 45.699219 8.0996094 C 46.899219 8.0996094 47.900391 9.1007813 47.900391 10.300781 C 47.900391 11.500781 46.899219 12.5 45.699219 12.5 C 44.499219 12.5 43.5 11.500781 43.5 10.300781 C 43.5 9.1007813 44.499219 8.0996094 45.699219 8.0996094 z M 52 8.0996094 C 53.2 8.0996094 54.199219 9.1007813 54.199219 10.300781 C 54.199219 11.500781 53.2 12.5 52 12.5 C 50.8 12.5 49.800781 11.500781 49.800781 10.300781 C 49.800781 9.1007813 50.8 8.0996094 52 8.0996094 z M 58.199219 8.0996094 C 59.399219 8.0996094 60.400391 9.1007813 60.400391 10.300781 C 60.400391 11.500781 59.399219 12.5 58.199219 12.5 C 56.999219 12.5 56 11.500781 56 10.300781 C 56 9.1007813 56.999219 8.0996094 58.199219 8.0996094 z M 12.699219 13.5 L 25.599609 13.5 C 25.999609 13.5 26.3 13.7 26.5 14 L 28.699219 16.900391 C 28.899219 17.200391 29.299609 17.400391 29.599609 17.400391 L 64 17.400391 L 64 59.099609 C 64 61.699609 61.900781 63.800781 59.300781 63.800781 L 8.6992188 63.800781 C 6.0992188 63.800781 4 61.699609 4 59.099609 L 4 17.400391 L 10.300781 17.400391 C 10.900781 17.400391 11.5 16.899219 11.5 16.199219 L 11.5 14.699219 C 11.5 14.099219 11.999219 13.5 12.699219 13.5 z M 19.599609 21.199219 C 19.099609 21.199219 18.599609 21.599219 18.599609 22.199219 L 18.599609 33.900391 C 18.699609 34.400391 19.099609 34.800781 19.599609 34.800781 L 25.800781 34.800781 C 26.300781 34.800781 26.800781 34.400781 26.800781 33.800781 L 26.800781 22.199219 C 26.800781 21.699219 26.400781 21.199219 25.800781 21.199219 L 19.599609 21.199219 z M 30.900391 24 C 30.400391 24 29.900391 24.4 29.900391 25 L 29.900391 33.800781 C 29.900391 34.400781 30.400391 34.800781 30.900391 34.800781 L 37.099609 34.800781 C 37.599609 34.800781 38.099609 34.400781 38.099609 33.800781 L 38.099609 25 C 38.099609 24.5 37.699609 24 37.099609 24 L 30.900391 24 z M 53.5 24.699219 C 53 24.699219 52.5 25.099219 52.5 25.699219 L 52.5 33.800781 C 52.5 34.400781 52.9 34.800781 53.5 34.800781 L 59.699219 34.800781 C 60.199219 34.800781 60.699219 34.400781 60.699219 33.800781 L 60.699219 25.699219 C 60.699219 25.199219 60.299219 24.699219 59.699219 24.699219 L 53.5 24.699219 z M 42.199219 29.199219 C 41.699219 29.199219 41.199219 29.599219 41.199219 30.199219 L 41.199219 33.800781 C 41.199219 34.400781 41.699219 34.800781 42.199219 34.800781 L 48.400391 34.800781 C 48.900391 34.800781 49.400391 34.400781 49.400391 33.800781 L 49.400391 30.199219 C 49.400391 29.699219 49.000391 29.199219 48.400391 29.199219 L 42.199219 29.199219 z M 8.3007812 29.300781 C 7.8007812 29.300781 7.3007812 29.700781 7.3007812 30.300781 L 7.3007812 33.900391 C 7.3007812 34.400391 7.7007813 34.900391 8.3007812 34.900391 L 14.5 34.900391 C 15 34.800391 15.5 34.400391 15.5 33.900391 L 15.5 30.300781 C 15.5 29.800781 15.1 29.300781 14.5 29.300781 L 8.3007812 29.300781 z M 20.400391 38.400391 C 14.300391 38.400391 9.4003906 43.300391 9.4003906 49.400391 C 9.4003906 55.500391 14.400391 60.400391 20.400391 60.400391 C 26.500391 60.400391 31.400391 55.400391 31.400391 49.400391 C 31.400391 43.300391 26.500391 38.400391 20.400391 38.400391 z M 38.400391 40 C 37.800391 40 37.300781 40.499609 37.300781 41.099609 L 37.300781 44.199219 C 37.300781 44.799219 37.800391 45.300781 38.400391 45.300781 L 41.5 45.300781 C 42.1 45.300781 42.599609 44.799219 42.599609 44.199219 L 42.599609 41.099609 C 42.599609 40.499609 42.1 40 41.5 40 L 38.400391 40 z M 19.599609 40.5 L 19.599609 49.5 C 19.599609 50 20 50.400391 20.5 50.400391 L 29.5 50.400391 C 28.9 54.900391 25.100391 58.5 20.400391 58.5 C 15.400391 58.5 11.400391 54.4 11.400391 49.5 C 11.400391 44.8 14.999609 41 19.599609 40.5 z M 47 41.199219 C 46.4 41.199219 46 41.599219 46 42.199219 C 46 42.699219 46.4 43.199219 47 43.199219 L 57.699219 43.199219 C 58.299219 43.199219 58.699219 42.699219 58.699219 42.199219 C 58.699219 41.599219 58.199219 41.199219 57.699219 41.199219 L 47 41.199219 z M 38.300781 47.599609 C 37.700781 47.599609 37.199219 48.099219 37.199219 48.699219 L 37.199219 51.800781 C 37.199219 52.400781 37.700781 52.900391 38.300781 52.900391 L 41.400391 52.900391 C 42.000391 52.900391 42.5 52.400781 42.5 51.800781 L 42.5 48.699219 C 42.5 48.099219 42.100391 47.599609 41.400391 47.599609 L 38.300781 47.599609 z M 47 49.300781 C 46.4 49.300781 46 49.800781 46 50.300781 C 46 50.800781 46.4 51.300781 47 51.300781 L 57.699219 51.300781 C 58.299219 51.300781 58.699219 50.800781 58.699219 50.300781 C 58.699219 49.800781 58.199219 49.300781 57.699219 49.300781 L 47 49.300781 z M 38.300781 55.300781 C 37.700781 55.300781 37.199219 55.800391 37.199219 56.400391 L 37.199219 59.5 C 37.199219 60.1 37.700781 60.599609 38.300781 60.599609 L 41.400391 60.599609 C 42.000391 60.599609 42.5 60.1 42.5 59.5 L 42.5 56.400391 C 42.5 55.800391 42.100391 55.300781 41.400391 55.300781 L 38.300781 55.300781 z M 47 57.400391 C 46.4 57.400391 46 57.900391 46 58.400391 C 46 58.900391 46.4 59.400391 47 59.400391 L 57.699219 59.400391 C 58.299219 59.400391 58.699219 58.900391 58.699219 58.400391 C 58.699219 57.900391 58.199219 57.400391 57.699219 57.400391 L 47 57.400391 z"/></svg>