<svg fill="#25a5a7" xmlns="http://www.w3.org/2000/svg"  viewBox="0 0 64 64" width="512px" height="512px"><path d="M 2 9 L 2 13 L 18 13 L 18 17 L 0 17 L 0 21 L 12 21 L 12 25 L 2 25 L 2 29 L 5 29 L 5 40 L 35 40 L 35 9 L 2 9 z M 38 22 L 38 43 L 5 43 L 5 52 L 9 52 C 9 48.134 12.134 45 16 45 C 19.866 45 23 48.134 23 52 L 42 52 C 42 48.134 45.134 45 49 45 C 52.77 45 55.836328 47.983797 55.986328 51.716797 L 61 51 L 61 46 C 60.448 46 60 45.552 60 45 L 60 43 C 60 42.448 60.448 42 61 42 L 61 37.570312 L 50 36 L 50 27 L 57.142578 27 L 56.039062 24.423828 C 55.409062 22.953828 53.962328 22 52.361328 22 L 38 22 z M 16 47 C 13.239 47 11 49.239 11 52 C 11 54.761 13.239 57 16 57 C 18.761 57 21 54.761 21 52 C 21 49.239 18.761 47 16 47 z M 49 47 C 46.239 47 44 49.239 44 52 C 44 54.761 46.239 57 49 57 C 51.761 57 54 54.761 54 52 C 54 49.239 51.761 47 49 47 z M 16 50 C 17.105 50 18 50.895 18 52 C 18 53.105 17.105 54 16 54 C 14.895 54 14 53.105 14 52 C 14 50.895 14.895 50 16 50 z M 49 50 C 50.105 50 51 50.895 51 52 C 51 53.105 50.105 54 49 54 C 47.895 54 47 53.105 47 52 C 47 50.895 47.895 50 49 50 z"/></svg>