<svg fill="#25a5a7" xmlns="http://www.w3.org/2000/svg"  viewBox="0 0 110 110" width="512px" height="512px"><path d="M 62.167969 9.6152344 C 61.678369 9.5696504 61.1707 9.6638641 60.707031 9.9179688 L 60.328125 10.126953 C 59.091675 10.804504 58.638794 12.355347 59.316406 13.591797 L 79.972656 51.285156 C 80.650269 52.521606 82.20105 52.974487 83.4375 52.296875 L 83.818359 52.089844 C 85.05481 51.412292 85.507629 49.859497 84.830078 48.623047 L 64.173828 10.929688 C 63.750356 10.156906 62.983968 9.6912077 62.167969 9.6152344 z M 58.607422 16.462891 L 43.738281 37.09375 C 43.898315 37.263794 44.028442 37.463867 44.148438 37.673828 L 51.498047 51.083984 C 51.618042 51.293945 51.707581 51.504394 51.767578 51.734375 C 54.767578 51.564392 61.708187 51.174683 77.158203 50.304688 L 58.607422 16.462891 z M 74.644531 24.324219 C 74.363612 24.307618 74.079376 24.310234 73.796875 24.333984 L 79.007812 33.84375 C 80.397827 32.043762 80.667847 29.514526 79.507812 27.394531 C 78.484077 25.530777 76.610969 24.440427 74.644531 24.324219 z M 20.917969 27.613281 C 17.277954 27.613281 14.337891 30.553589 14.337891 34.183594 L 14.337891 87.623047 L 98.626953 87.623047 L 98.626953 34.183594 C 98.626953 30.553589 95.688599 27.613281 92.058594 27.613281 L 81.777344 27.613281 C 82.467346 29.553284 82.367554 31.673401 81.517578 33.523438 L 92.058594 33.523438 C 92.41864 33.523438 92.716797 33.823364 92.716797 34.193359 L 92.716797 82.703125 L 20.257812 82.703125 L 20.257812 34.193359 C 20.257812 33.823364 20.547913 33.523437 20.917969 33.523438 L 43.847656 33.523438 L 48.107422 27.613281 L 20.917969 27.613281 z M 41.205078 37.855469 C 40.915398 37.828529 40.616249 37.884735 40.341797 38.035156 L 31.234375 43.027344 C 30.502502 43.428467 30.233704 44.346191 30.634766 45.078125 L 30.740234 45.271484 L 28.884766 46.289062 C 27.898254 46.829712 27.535522 48.066162 28.076172 49.052734 L 33.257812 58.507812 C 33.798462 59.494385 35.036926 59.855103 36.023438 59.314453 L 37.878906 58.296875 L 37.986328 58.490234 C 38.387451 59.222107 39.303284 59.490906 40.035156 59.089844 L 49.144531 54.097656 C 49.876465 53.696594 50.14325 52.778748 49.742188 52.046875 L 42.392578 38.634766 C 42.141876 38.177307 41.687878 37.900368 41.205078 37.855469 z M 47.966797 57.023438 L 41.498047 60.574219 L 49.607422 75.373047 C 49.967468 76.03302 50.796753 76.284058 51.466797 75.914062 L 56.767578 73.013672 C 57.427551 72.653686 57.66864 71.82428 57.308594 71.154297 C 52.91864 66.254272 49.776794 62.423401 47.966797 57.023438 z M 11.484375 89.623047 L 11.484375 91.242188 C 11.484375 94.686035 13.388611 97.683655 16.199219 99.246094 C 16.191162 99.29718 16.169922 99.34314 16.169922 99.396484 C 16.169922 99.949219 16.617187 100.39648 17.169922 100.39648 C 22.426266 100.39713 10.118305 100.39695 103.17578 100.39648 C 103.72852 100.39648 104.17578 99.949219 104.17578 99.396484 C 104.17578 98.84375 103.72852 98.396484 103.17578 98.396484 L 98.033203 98.396484 C 100.13422 96.719299 101.48437 94.139648 101.48438 91.242188 L 101.48438 89.623047 L 11.484375 89.623047 z M 6.8242188 98.396484 C 6.2715072 98.396484 5.8242187 98.84375 5.8242188 99.396484 C 5.8242188 99.949219 6.2715072 100.39648 6.8242188 100.39648 L 12.167969 100.39648 C 12.720703 100.39648 13.167969 99.949219 13.167969 99.396484 C 13.167969 98.84375 12.720703 98.396484 12.167969 98.396484 L 6.8242188 98.396484 z"/></svg>