<svg fill="#25a5a7" xmlns="http://www.w3.org/2000/svg"  viewBox="0 0 68 68" width="512px" height="512px"><path d="M 6.8515625 2 C 4.1882325 2 2.0097656 4.1682739 2.0097656 6.8417969 L 2.0097656 41.195312 C 2.0097656 43.858581 4.1882325 46.025391 6.8515625 46.025391 L 27.15625 46.025391 C 29.82959 46.025391 31.998047 43.858582 31.998047 41.195312 L 31.998047 6.8417969 C 31.998047 4.1682739 29.82959 2 27.15625 2 L 6.8515625 2 z M 45.087891 4.3886719 C 42.81849 4.3352706 40.516387 5.0162353 38.570312 6.5117188 C 38.195812 6.7818156 38.357273 7.4121094 38.894531 7.4121094 C 42.672363 7.2382202 46.186523 9.3731079 47.828125 12.753906 L 47.144531 13 C 46.628174 13.192322 46.273193 13.646789 46.222656 14.193359 C 46.172119 14.739929 46.434814 15.24585 46.900391 15.529297 L 52.46875 18.830078 C 53.196045 19.280149 54.195854 18.954948 54.501953 18.101562 L 56.689453 12.007812 C 56.871582 11.491577 56.750244 10.933838 56.355469 10.539062 C 55.970703 10.154419 55.402832 10.024414 54.886719 10.216797 L 54.355469 10.40625 C 52.560725 6.6055354 48.870224 4.477674 45.087891 4.3886719 z M 8.0078125 6.4394531 L 25.978516 6.4394531 C 27.392822 6.4394531 28.539063 7.5740967 28.539062 8.9882812 L 28.548828 34.556641 C 28.559326 35.970825 27.414307 37.117187 26 37.117188 L 8.0292969 37.117188 C 6.6149903 37.117188 5.46875 35.972229 5.46875 34.568359 L 5.4589844 8.9882812 C 5.4589844 7.5844116 6.59375 6.4394531 8.0078125 6.4394531 z M 17.009766 13.560547 C 13.118164 13.560547 9.9589844 16.729492 9.9589844 20.621094 C 9.9589844 24.512756 13.118164 27.671875 17.009766 27.671875 C 20.901367 27.671875 24.058594 24.512756 24.058594 20.621094 C 24.058594 16.729492 20.901367 13.560547 17.009766 13.560547 z M 18.884766 18.595703 C 19.280113 18.517789 19.701172 18.67511 19.941406 19.03125 C 20.260986 19.506043 20.126953 20.14679 19.652344 20.466797 L 16.607422 22.490234 C 16.1292 22.818703 15.460135 22.669266 15.162109 22.179688 L 14.056641 20.394531 C 13.74707 19.909302 13.901367 19.27002 14.386719 18.970703 C 14.871826 18.671265 15.501465 18.815613 15.800781 19.300781 L 16.349609 20.1875 L 18.505859 18.753906 C 18.624634 18.673904 18.752983 18.621675 18.884766 18.595703 z M 40.84375 21.962891 C 38.18042 21.962891 36.001953 24.131165 36.001953 26.804688 L 36.001953 61.158203 C 36.001953 63.831726 38.18042 66 40.84375 66 L 61.148438 66 C 63.822021 66 65.990234 63.831726 65.990234 61.158203 L 65.990234 26.804688 C 65.990234 24.131165 63.822022 21.962891 61.148438 21.962891 L 40.84375 21.962891 z M 42 26.402344 L 59.972656 26.402344 C 61.386719 26.402344 62.520996 27.549316 62.53125 28.953125 L 62.542969 54.53125 C 62.542969 55.935181 61.395996 57.082031 59.992188 57.082031 L 42.021484 57.082031 C 40.607422 57.082031 39.460937 55.945435 39.460938 54.53125 L 39.439453 28.962891 C 39.439453 27.548706 40.585937 26.402344 42 26.402344 z M 51.001953 31.552734 C 45.665283 31.552734 41.318359 35.899536 41.318359 41.236328 C 41.318359 46.57312 45.665283 50.917969 51.001953 50.917969 C 56.338867 50.917969 60.673828 46.57312 60.673828 41.236328 C 60.673828 35.899536 56.338867 31.552734 51.001953 31.552734 z M 50.990234 35.238281 C 51.423828 35.238281 51.765625 35.580139 51.765625 36.013672 L 51.765625 36.621094 C 52.911621 36.951416 53.748047 38.004883 53.748047 39.253906 C 53.748047 39.687439 53.395752 40.027344 52.972656 40.027344 C 52.549072 40.027344 52.199219 39.687439 52.199219 39.253906 C 52.199219 38.593262 51.661377 38.056641 50.990234 38.056641 C 50.32959 38.056641 49.792969 38.593262 49.792969 39.253906 C 49.792969 39.924866 50.32959 40.460938 50.990234 40.460938 C 52.507812 40.460938 53.748047 41.701294 53.748047 43.21875 C 53.748047 44.467773 52.911621 45.520691 51.765625 45.861328 L 51.765625 46.458984 C 51.765625 46.892517 51.423828 47.234375 50.990234 47.234375 C 50.567139 47.234375 50.216797 46.892517 50.216797 46.458984 L 50.216797 45.861328 C 49.071045 45.520691 48.246094 44.467773 48.246094 43.21875 C 48.246094 42.785156 48.585937 42.443359 49.019531 42.443359 C 49.442627 42.443359 49.792969 42.785156 49.792969 43.21875 C 49.792969 43.879456 50.32959 44.425781 50.990234 44.425781 C 51.661377 44.425781 52.199219 43.879456 52.199219 43.21875 C 52.199219 42.54779 51.661377 42.009766 50.990234 42.009766 C 49.4729 42.009766 48.246094 40.771362 48.246094 39.253906 C 48.246094 38.004883 49.071045 36.951416 50.216797 36.621094 L 50.216797 36.013672 C 50.216797 35.580139 50.567139 35.238281 50.990234 35.238281 z M 16.998047 39.740234 C 17.834228 39.740234 18.505859 40.400208 18.505859 41.236328 C 18.505859 42.062134 17.834228 42.732422 16.998047 42.732422 C 16.172119 42.732422 15.501953 42.062134 15.501953 41.236328 C 15.501953 40.400208 16.172119 39.740234 16.998047 39.740234 z M 44.828125 40.214844 C 45.40625 40.214844 45.861328 40.678345 45.861328 41.246094 C 45.861328 41.803528 45.40625 42.257812 44.828125 42.257812 C 44.270996 42.257812 43.816406 41.803528 43.816406 41.246094 C 43.816406 40.678345 44.270996 40.214844 44.828125 40.214844 z M 57.142578 40.214844 C 57.720703 40.214844 58.166016 40.678345 58.166016 41.246094 C 58.166016 41.803528 57.720703 42.257812 57.142578 42.257812 C 56.575195 42.257812 56.130859 41.803528 56.130859 41.246094 C 56.130859 40.678345 56.575195 40.214844 57.142578 40.214844 z M 13.599609 49.765625 C 12.996831 49.707306 12.376059 50.049414 12.146484 50.689453 L 9.9609375 56.783203 C 9.7788086 57.299439 9.8999024 57.857117 10.294922 58.251953 C 10.679443 58.636597 11.245605 58.768494 11.761719 58.576172 L 12.292969 58.384766 C 15.165006 64.466934 22.890881 66.268158 28.080078 62.28125 C 28.45603 62.009743 28.29184 61.378906 27.755859 61.378906 C 23.978271 61.552795 20.462158 59.417847 18.820312 56.037109 L 19.505859 55.791016 C 20.021973 55.598694 20.376953 55.144226 20.427734 54.597656 C 20.478027 54.051086 20.213379 53.545227 19.748047 53.261719 L 14.181641 49.960938 C 13.999827 49.848426 13.800535 49.785065 13.599609 49.765625 z M 50.990234 59.703125 C 51.826416 59.703125 52.498047 60.373413 52.498047 61.199219 C 52.498047 62.025024 51.826416 62.707031 50.990234 62.707031 C 50.164551 62.707031 49.494141 62.025024 49.494141 61.199219 C 49.494141 60.373413 50.164551 59.703125 50.990234 59.703125 z"/></svg>