<svg fill="#25a5a7" xmlns="http://www.w3.org/2000/svg"  viewBox="0 0 50 50" width="512px" height="512px"><path d="M 6 3 L 6 6 L 2 6 L 2 32 L 20 32 L 20 36 L 13.75 36 L 24 47.4375 L 34.25 36 L 28 36 L 28 32 L 46 32 L 46 29 L 49 29 L 49 3 Z M 8 5 L 47 5 L 47 27 L 46 27 L 46 6 L 8 6 Z M 9.5625 8 L 38.4375 8 C 39.433594 8 39.78125 8.554688 40.28125 9.71875 C 40.484375 10.191406 40.671875 10.640625 41 10.96875 C 41.378906 11.347656 41.949219 11.558594 42.53125 11.78125 C 43.339844 12.089844 44 12.386719 44 12.75 L 44 25.25 C 44 25.613281 43.339844 25.910156 42.53125 26.21875 C 41.949219 26.441406 41.378906 26.652344 41 27.03125 C 40.671875 27.359375 40.484375 27.808594 40.28125 28.28125 C 39.78125 29.449219 39.433594 30 38.4375 30 L 9.5625 30 C 8.566406 30 8.21875 29.449219 7.71875 28.28125 C 7.515625 27.808594 7.328125 27.359375 7 27.03125 C 6.621094 26.652344 6.050781 26.441406 5.46875 26.21875 C 4.660156 25.910156 4 25.613281 4 25.25 L 4 12.75 C 4 12.703125 4.011719 12.636719 4.03125 12.59375 C 4.046875 12.554688 4.066406 12.527344 4.125 12.46875 C 4.1875 12.40625 4.304688 12.328125 4.4375 12.25 C 4.542969 12.1875 4.679688 12.121094 4.8125 12.0625 C 5.011719 11.972656 5.246094 11.875 5.46875 11.78125 C 5.523438 11.761719 5.570313 11.738281 5.625 11.71875 C 5.703125 11.6875 5.765625 11.65625 5.84375 11.625 C 5.996094 11.5625 6.152344 11.511719 6.3125 11.4375 C 6.347656 11.421875 6.375 11.390625 6.40625 11.375 C 6.4375 11.359375 6.46875 11.328125 6.5 11.3125 C 6.679688 11.210938 6.859375 11.109375 7 10.96875 C 7.382813 10.585938 7.503906 10.230469 7.65625 9.875 C 7.679688 9.820313 7.695313 9.773438 7.71875 9.71875 C 7.863281 9.378906 7.984375 9.113281 8.125 8.875 C 8.207031 8.734375 8.292969 8.609375 8.375 8.5 C 8.527344 8.320313 8.695313 8.175781 8.90625 8.09375 C 8.9375 8.082031 8.964844 8.070313 9 8.0625 C 9.160156 8.011719 9.351563 8 9.5625 8 Z M 24 9 C 19.039063 9 15 13.484375 15 19 C 15 24.515625 19.039063 29 24 29 C 28.960938 29 33 24.515625 33 19 C 33 13.484375 28.960938 9 24 9 Z M 9.5 17 C 8.121094 17 7 18.121094 7 19.5 C 7 20.878906 8.121094 22 9.5 22 C 10.878906 22 12 20.878906 12 19.5 C 12 18.121094 10.878906 17 9.5 17 Z M 38.5 17 C 37.121094 17 36 18.121094 36 19.5 C 36 20.878906 37.121094 22 38.5 22 C 39.878906 22 41 20.878906 41 19.5 C 41 18.121094 39.878906 17 38.5 17 Z"/></svg>