<svg fill="#25a5a7" xmlns="http://www.w3.org/2000/svg"  viewBox="0 0 64 64" width="512px" height="512px"><path d="M 27.859375 9.890625 C 23.289375 10.730625 19.200781 12.960859 16.050781 16.130859 C 18.350781 17.080859 20.799844 17.820078 23.339844 18.330078 C 24.449844 14.600078 26.009375 11.660625 27.859375 9.890625 z M 36.140625 9.890625 C 37.990625 11.660625 39.550156 14.600078 40.660156 18.330078 C 43.200156 17.820078 45.649219 17.080859 47.949219 16.130859 C 44.799219 12.960859 40.710625 10.730625 36.140625 9.890625 z M 32 10 C 29.53 10 26.960781 13.219922 25.300781 18.669922 C 27.490781 19.009922 29.73 19.179687 32 19.179688 C 34.27 19.179688 36.509219 19.009922 38.699219 18.669922 C 37.039219 13.219922 34.47 10 32 10 z M 14.630859 17.699219 C 13.310859 19.299219 12.210859 21.08 11.380859 23 L 22.269531 23 C 22.429531 22.05 22.620078 21.139766 22.830078 20.259766 C 19.950078 19.679766 17.190859 18.819219 14.630859 17.699219 z M 49.369141 17.699219 C 46.809141 18.819219 44.049922 19.679766 41.169922 20.259766 C 41.379922 21.139766 41.570469 22.05 41.730469 23 L 52.619141 23 C 51.789141 21.08 50.689141 19.299219 49.369141 17.699219 z M 24.779297 20.619141 C 24.599297 21.379141 24.429063 22.17 24.289062 23 L 39.710938 23 C 39.570937 22.17 39.400703 21.379141 39.220703 20.619141 C 36.860703 20.989141 34.44 21.179687 32 21.179688 C 29.56 21.179688 27.139297 20.989141 24.779297 20.619141 z M 6 25 C 4.9 25 4 25.9 4 27 L 4 37 C 4 38.1 4.9 39 6 39 L 58 39 C 59.1 39 60 38.1 60 37 L 60 27 C 60 25.9 59.1 25 58 25 L 6 25 z M 6 27 L 44 27 L 44 37 L 6 37 L 6 27 z M 51.259766 28.009766 C 53.059766 28.009766 54.519531 29.469531 54.519531 31.269531 C 54.519531 31.809531 54.380391 32.3 54.150391 32.75 L 55.699219 34.300781 C 56.089219 34.690781 56.089219 35.320937 55.699219 35.710938 L 55.710938 35.710938 C 55.510937 35.910938 55.26 36 55 36 C 54.74 36 54.489062 35.900938 54.289062 35.710938 L 52.740234 34.160156 C 52.290234 34.390156 51.799766 34.529297 51.259766 34.529297 C 49.459766 34.529297 48 33.069531 48 31.269531 C 48 29.469531 49.459766 28.009766 51.259766 28.009766 z M 51.259766 30 C 50.559766 30 50 30.569766 50 31.259766 C 50 31.949766 50.569766 32.519531 51.259766 32.519531 C 51.949766 32.519531 52.519531 31.949766 52.519531 31.259766 C 52.519531 30.569766 51.949766 30 51.259766 30 z M 11.380859 41 C 12.210859 42.92 13.310859 44.700781 14.630859 46.300781 C 17.190859 45.180781 19.950078 44.320234 22.830078 43.740234 C 22.620078 42.860234 22.429531 41.95 22.269531 41 L 11.380859 41 z M 24.289062 41 C 24.429063 41.83 24.599297 42.620859 24.779297 43.380859 C 27.139297 43.010859 29.56 42.820312 32 42.820312 C 34.44 42.820312 36.860703 43.010859 39.220703 43.380859 C 39.400703 42.620859 39.570938 41.83 39.710938 41 L 24.289062 41 z M 41.730469 41 C 41.570469 41.95 41.379922 42.860234 41.169922 43.740234 C 44.049922 44.320234 46.809141 45.180781 49.369141 46.300781 C 50.689141 44.700781 51.789141 42.92 52.619141 41 L 41.730469 41 z M 32 44.820312 C 29.73 44.820312 27.490781 44.990078 25.300781 45.330078 C 26.960781 50.780078 29.53 54 32 54 C 34.47 54 37.039219 50.780078 38.699219 45.330078 C 36.509219 44.990078 34.27 44.820313 32 44.820312 z M 23.339844 45.669922 C 20.799844 46.179922 18.350781 46.919141 16.050781 47.869141 C 19.200781 51.039141 23.289375 53.269375 27.859375 54.109375 C 26.009375 52.339375 24.449844 49.399922 23.339844 45.669922 z M 40.660156 45.669922 C 39.550156 49.399922 37.990625 52.339375 36.140625 54.109375 C 40.710625 53.269375 44.799219 51.039141 47.949219 47.869141 C 45.649219 46.919141 43.200156 46.179922 40.660156 45.669922 z"/></svg>