<svg fill="#25a5a7" xmlns="http://www.w3.org/2000/svg"  viewBox="0 0 64 64" width="512px" height="512px"><path d="M4,57a5.00588,5.00588,0,0,0,5,5H39a5.00588,5.00588,0,0,0,5-5V54H4Zm17,0h6a1,1,0,0,1,0,2H21a1,1,0,0,1,0-2ZM20,47H44v5H4V7A5.00588,5.00588,0,0,1,9,2h7V5a3.00328,3.00328,0,0,0,3,3H29a3.00328,3.00328,0,0,0,3-3V2h7a5.00588,5.00588,0,0,1,5,5v6H20a7.00787,7.00787,0,0,0-7,7V40A7.00787,7.00787,0,0,0,20,47ZM18,5V2H30V5a1.0013,1.0013,0,0,1-1,1H19A1.0013,1.0013,0,0,1,18,5ZM29,23v3a1.0013,1.0013,0,0,1-1,1H23a1.0013,1.0013,0,0,1-1-1V23a1.0013,1.0013,0,0,1,1-1h5A1.0013,1.0013,0,0,1,29,23Zm26-8H20a5.00588,5.00588,0,0,0-5,5V40a5.00588,5.00588,0,0,0,5,5H55a5.00588,5.00588,0,0,0,5-5V20A5.00588,5.00588,0,0,0,55,15ZM27,39H22a1,1,0,0,1,0-2h5a1,1,0,0,1,0,2ZM23,29a3.00328,3.00328,0,0,1-3-3V23a3.00328,3.00328,0,0,1,3-3h5a3.00328,3.00328,0,0,1,3,3v3a3.00328,3.00328,0,0,1-3,3ZM36,39H31a1,1,0,0,1,0-2h5a1,1,0,0,1,0,2Zm9,0H40a1,1,0,0,1,0-2h5a1,1,0,0,1,0,2Zm9,0H49a1,1,0,0,1,0-2h5a1,1,0,0,1,0,2Z"/></svg>