<?xml version="1.0" encoding="UTF-8"?>
<svg version="1.1" xmlns="http://www.w3.org/2000/svg" width="1741" height="1741">
<path d="M0 0 C2.27580333 0.00567871 4.55159909 0.00847528 6.82740784 0.0110817 C31.95049958 0.05279779 56.90446942 0.80477546 81.91493225 3.31805801 C83.20488098 3.44534286 83.20488098 3.44534286 84.52088928 3.57519913 C164.04631523 11.47018367 242.47563888 30.74315717 406.26502991 104.81171036 C409.38933479 106.58773405 412.54200721 108.30664903 415.70057678 110.02069473 C464.47411422 136.59325279 510.60446621 170.97315137 551.66493225 208.28290176 C553.66482601 210.09183344 555.68762657 211.86697602 557.72743225 213.63055801 C569.07740612 223.55637934 579.82081602 234.06429203 590.46473694 244.73749161 C592.80376706 247.08192478 595.14815422 249.42090673 597.49305725 251.75946426 C599.00639912 253.27346636 600.51943106 254.78777831 602.03211975 256.30243301 C603.06512711 257.33240402 603.06512711 257.33240402 604.1190033 258.38318253 C608.03264775 262.3155686 611.77160796 266.34882174 615.38996887 270.55498123 C617.62672569 273.1409935 619.95947327 275.62863884 622.28993225 278.13055801 C626.55888419 282.75105351 630.59524519 287.50912553 634.53993225 292.41180801 C636.75257168 295.11937994 639.01599045 297.76952649 641.30677795 300.41058731 C646.91736266 306.88079406 652.26143957 313.50429279 657.41737366 320.34344864 C659.16828184 322.65211271 660.93768881 324.9460385 662.707901 327.23993301 C670.21885217 336.99306607 677.55347471 346.805038 684.39247131 357.04169083 C686.14918037 359.66830327 687.91913261 362.28580636 689.68836975 364.90399551 C709.40731531 394.17731036 727.23291211 424.40075839 743.17323303 455.88592911 C744.79143636 459.07470152 746.42682449 462.2539725 748.067276 465.43133926 C787.01858848 541.38924916 811.69182889 625.7590597 829.16493225 752.44305801 C829.24801636 753.31589432 829.33110046 754.18873062 829.41670227 755.08801651 C832.20526229 784.72496412 833.39041399 814.55197763 832.91493225 844.31805801 C832.89704651 845.43954239 832.87916077 846.56102676 832.86073303 847.71649551 C831.29372552 931.35123221 819.12746047 1019.50164484 769.91493225 1126.31805801 C752.04958128 1143.34392113 728.67223093 1151.91872739 704.15907288 1151.67157364 C680.18499989 1150.89535481 659.15837949 1140.21472334 642.72743225 1123.13055801 C628.63110213 1107.10996695 621.76319158 1086.91176483 621.53993225 1065.75555801 C621.51902527 1064.51721207 621.51902527 1064.51721207 621.49769592 1063.25384903 C621.58716224 1051.34553412 625.14039883 1040.08958273 628.84324646 1028.87683487 C643.71808706 983.52005946 652.27885119 936.75492484 656.91493225 889.31805801 C656.98389709 888.61477371 657.05286194 887.91148941 657.12391663 887.18689346 C660.67092141 850.31618176 660.47554389 812.1771614 656.91493225 775.31805801 C656.85176819 774.6534053 656.78860413 773.98875259 656.723526 773.30395889 C648.90202754 691.44421353 626.56716261 612.67319861 561.91493225 488.31805801 C561.09895569 486.98025284 561.09895569 486.98025284 560.26649475 485.6154213 C549.16037576 467.48693709 536.86589646 450.17028937 523.91493225 433.31805801 C523.44990295 432.71268204 522.98487366 432.10730606 522.50575256 431.48358536 C516.70754937 423.96296281 510.71567115 416.6359512 504.5438385 409.41962051 C502.04766176 406.49357201 499.63566591 403.50449049 497.22743225 400.50555801 C494.0332493 396.5768838 490.70438957 392.94716529 487.03211975 389.46258926 C485.27947004 387.68730385 483.68769541 385.88847937 482.0750885 383.98993301 C476.82630986 377.94615984 471.10262436 372.35689142 465.43617249 366.70892715 C463.48197602 364.76008932 461.53318078 362.80596529 459.58485413 360.85126114 C453.53035605 354.79352544 447.46505164 348.84462567 440.91493225 343.31805801 C439.30724853 341.86360284 437.70253511 340.40584907 436.10243225 338.94305801 C431.83747917 335.09877557 427.46632375 331.42278896 423.00086975 327.81415176 C420.76553408 326.00607646 418.5430502 324.18693038 416.32899475 322.35321426 C388.6029238 299.45750615 358.34262603 278.80738085 326.91493225 261.31805801 C325.98422913 260.79776016 325.053526 260.27746231 324.09461975 259.74139786 C317.08360652 255.839769 310.01910841 252.04710446 302.91493225 248.31805801 C301.90511292 247.7871254 300.89529358 247.25619278 299.85487366 246.7091713 C229.85183721 210.16894167 152.268836 188.04987445 73.91493225 179.31805801 C72.66438049 179.16852676 71.41382874 179.01899551 70.12538147 178.86493301 C25.77095096 173.7140243 -21.65792454 173.67975259 -65.9907074 179.06482315 C-68.18956951 179.33069361 -70.3895822 179.58499346 -72.58995056 179.83807755 C-143.11776074 188.04413621 -210.57299819 207.79024999 -275.08506775 237.31805801 C-276.40474548 237.91698868 -276.40474548 237.91698868 -277.75108337 238.52801895 C-290.87732726 244.50061532 -303.50425564 251.27735858 -316.08506775 258.31805801 C-316.96453064 258.80677383 -317.84399353 259.29548965 -318.75010681 259.79901505 C-350.51769334 277.47985823 -381.21519904 297.92331926 -409.08506775 321.31805801 C-410.85469748 322.75703944 -412.62556876 324.19449516 -414.39756775 325.63055801 C-430.389233 338.7414552 -445.57065528 352.58808496 -460.08506775 367.31805801 C-463.06118098 370.30436342 -466.05134538 373.27616147 -469.04600525 376.24383926 C-470.51741659 377.70602132 -471.98876935 379.16826232 -473.46006775 380.63055801 C-474.18967712 381.35178848 -474.9192865 382.07301895 -475.67100525 382.81610489 C-480.35788832 387.48206437 -484.79089341 392.28988705 -489.08506775 397.31805801 C-490.03510021 398.41223224 -490.98559707 399.50600348 -491.93663025 400.59930801 C-528.8221322 443.30883659 -559.65958585 489.94820501 -585.08506775 540.31805801 C-585.60037048 541.33786758 -586.11567322 542.35767715 -586.64659119 543.40839005 C-623.88219713 617.63900264 -645.29254397 699.16411065 -653.40312576 829.1139946 C-653.39745581 831.17117262 -653.39465357 833.2283423 -653.39204407 835.28552628 C-653.35073376 857.73937577 -652.63269833 879.99850533 -650.08506775 902.31805801 C-650.00021118 903.07467728 -649.91535461 903.83129654 -649.82792664 904.61084366 C-644.76117805 949.49633061 -635.18585918 993.40642644 -621.08506775 1036.31805801 C-620.69593201 1037.50995743 -620.30679626 1038.70185684 -619.90586853 1039.92987442 C-604.15964473 1087.83942141 -582.37670808 1133.33760484 -556.08506775 1176.31805801 C-555.54108337 1177.20992813 -554.997099 1178.10179825 -554.43663025 1179.02069473 C-533.0212184 1213.97700626 -507.49916496 1246.60459092 -479.62242126 1276.63714981 C-478.45087937 1277.9180877 -477.29220758 1279.21080922 -476.13951111 1280.50873184 C-470.75959153 1286.56121616 -465.18489347 1292.37428892 -459.44615173 1298.08734512 C-458.01667058 1299.51143293 -456.59266264 1300.94083845 -455.16905212 1302.37079239 C-450.52149678 1307.01187932 -445.83076606 1311.52983683 -440.84361267 1315.80463028 C-438.25457657 1318.03279004 -435.77204334 1320.36487516 -433.27256775 1322.69305801 C-428.7020887 1326.91079888 -424.01567905 1330.92758441 -419.167099 1334.82587051 C-416.85342657 1336.69674886 -414.56320196 1338.5853768 -412.2842865 1340.49774551 C-396.19106794 1353.9762458 -379.2779927 1365.9746626 -361.83506775 1377.63055801 C-361.0702005 1378.14261795 -360.30533325 1378.65467789 -359.51728821 1379.18225479 C-318.66331044 1406.4883201 -275.01845886 1428.91060304 -229.08506775 1446.31805801 C-228.1495105 1446.67287247 -228.1495105 1446.67287247 -227.1950531 1447.03485489 C-167.48570787 1469.6002193 -103.84506069 1483.56146697 -40.08506775 1487.31805801 C-39.40202576 1487.35935837 -38.71898376 1487.40065872 -38.01524353 1487.4432106 C-24.78482648 1488.22814058 -11.58756411 1488.5209366 1.66493225 1488.50555801 C2.64015839 1488.50495377 3.61538452 1488.50434952 4.62016296 1488.50372696 C72.19480891 1488.39103269 138.66475176 1476.76974441 202.81336975 1455.75165176 C204.06577454 1455.34229385 205.31817932 1454.93293594 206.60853577 1454.51117325 C208.92531625 1453.74735309 211.23869527 1452.97308786 213.54750061 1452.18548965 C223.7155158 1448.79980778 233.99153892 1446.91872451 244.72743225 1447.00555801 C245.48242004 1447.01047256 246.23740784 1447.01538712 247.01527405 1447.02045059 C271.39811028 1447.51712385 292.87913069 1457.83718575 309.95863342 1474.99310684 C326.59681122 1492.35430031 332.50260298 1516.18603594 332.192276 1539.55633926 C331.41844138 1562.8599262 320.0437986 1583.57366683 303.31336975 1599.36883926 C291.60433486 1609.87737862 276.46986577 1615.35151546 261.85243225 1620.50555801 C261.18809174 1620.74038895 260.52375122 1620.97521988 259.83927917 1621.2171669 C187.22562513 1646.77310716 108.31946136 1661.11177001 26.442276 1661.52118301 C25.59425478 1661.52401039 24.74623356 1661.52683777 23.87251472 1661.52975082 C19.36427141 1661.54461046 14.85605887 1661.55391708 10.34779358 1661.55829239 C6.72529245 1661.56262668 3.10303629 1661.57633941 -0.51939392 1661.59930801 C-82.83146671 1662.1100308 -165.2784356 1649.80387138 -408.12608337 1554.03680801 C-411.16211035 1552.2733072 -414.20945104 1550.53040727 -417.25694275 1548.78680801 C-430.79161392 1540.97076629 -443.90063346 1532.62068847 -456.89756775 1523.94305801 C-457.65306915 1523.43890366 -458.40857056 1522.9347493 -459.18696594 1522.41531754 C-472.60161927 1513.44545562 -485.77912875 1504.20545051 -498.58506775 1494.38055801 C-499.48233582 1493.69380997 -500.37960388 1493.00706192 -501.30406189 1492.29950333 C-503.90045004 1490.3091952 -506.49346632 1488.31459328 -509.08506775 1486.31805801 C-509.77197693 1485.79002579 -510.45888611 1485.26199356 -511.16661072 1484.71796036 C-518.30190158 1479.22173294 -525.24640144 1473.55035598 -532.05210876 1467.6503334 C-535.46533728 1464.69207432 -538.92661348 1461.8207017 -542.46006775 1459.00555801 C-548.52054458 1454.08755694 -554.14429882 1448.72842559 -559.7999115 1443.35712051 C-563.04505828 1440.27588974 -566.34713443 1437.26416601 -569.66319275 1434.25946426 C-576.30020631 1428.21252971 -582.65875095 1421.89603643 -588.99595642 1415.53754044 C-590.90928969 1413.61880297 -592.82797279 1411.70553047 -594.74717712 1409.79266739 C-600.21496356 1404.32784412 -605.64913682 1398.88353111 -610.65904236 1392.98920059 C-613.0017105 1390.24385503 -615.49155931 1387.63727705 -617.96006775 1385.00555801 C-622.42011131 1380.21156661 -626.64816328 1375.29294806 -630.74913025 1370.18524551 C-633.42382453 1366.90225956 -636.18744187 1363.70569098 -638.96006775 1360.50555801 C-679.02221154 1314.0178175 -712.39115343 1260.93303322 -740.08506775 1206.31805801 C-740.46711365 1205.5691127 -740.84915955 1204.82016739 -741.24278259 1204.04852676 C-743.2101757 1200.18937404 -745.14517067 1196.31593231 -747.0499115 1192.42547989 C-747.78210739 1190.93483957 -748.51961306 1189.44680189 -749.260849 1187.96063614 C-780.63714693 1124.96518968 -801.89375116 1056.32310154 -815.08506775 987.31805801 C-815.22472961 986.59074478 -815.36439148 985.86343155 -815.50828552 985.11407852 C-821.86433441 951.87035618 -826.14642478 918.11264273 -828.08506775 884.31805801 C-828.1263681 883.67462448 -828.16766846 883.03119095 -828.21022034 882.36825943 C-829.25500046 866.0073924 -829.28797241 849.64345452 -829.27256775 833.25555801 C-829.27215359 832.54639488 -829.27173943 831.83723175 -829.27131271 831.10657883 C-829.255253 809.12474602 -829.11915254 787.22498154 -827.08506775 765.31805801 C-827.00730103 764.47358109 -826.9295343 763.62910416 -826.84941101 762.75903702 C-818.58624204 673.96832748 -798.38907049 587.23785815 -722.65830994 424.05438614 C-721.11839299 421.37602034 -719.60195561 418.68577628 -718.09288025 415.98993301 C-706.52371289 395.37780151 -693.56368022 375.72422838 -680.08506775 356.31805801 C-679.63212341 355.66434219 -679.17917908 355.01062637 -678.71250916 354.33710098 C-670.87071022 343.06043882 -662.46849647 332.19432776 -654.08506775 321.31805801 C-653.55171814 320.62583145 -653.01836853 319.93360489 -652.46885681 319.22040176 C-646.34710234 311.29669564 -640.02371223 303.57263043 -633.5030365 295.97430801 C-632.04495301 294.27120223 -630.59559923 292.56096528 -629.14756775 290.84930801 C-622.89361193 283.47572861 -616.47026162 276.29868565 -609.86314392 269.23968887 C-608.5040155 267.77082992 -607.1575171 266.29027479 -605.8167572 264.80463028 C-598.58925851 256.82080456 -591.07636924 249.15525034 -583.45005798 241.55267715 C-581.38646713 239.49448645 -579.328331 237.43094821 -577.27061462 235.36688614 C-575.93434685 234.03127867 -574.59776918 232.69598118 -573.260849 231.36102676 C-572.65855972 230.75671326 -572.05627045 230.15239975 -571.43572998 229.52977371 C-567.71540463 225.82951059 -563.87480651 222.31845502 -559.89903259 218.89390945 C-557.1227848 216.48209089 -554.45443221 213.95860202 -551.77256775 211.44305801 C-546.97511147 206.97979094 -542.05344402 202.74831373 -536.9405365 198.64618301 C-534.31295289 196.50385767 -531.75091257 194.3065205 -529.19590759 192.07928848 C-521.41201862 185.30259752 -513.30551574 179.02549739 -505.06455994 172.81708145 C-503.28271533 171.46773193 -501.51258653 170.10536519 -499.74913025 168.73212051 C-465.72337919 142.24860143 -428.88409451 118.82542328 -390.7530365 98.72772598 C-388.31447812 97.439271 -385.88574237 96.13446516 -383.46006775 94.82196426 C-312.64694458 56.69481924 -235.43891818 30.09673855 -87.46006775 4.50555801 C-86.1303746 4.35650513 -86.1303746 4.35650513 -84.77381897 4.20444107 C-56.57281527 1.08662819 -28.35554332 -0.07211777 0 0 Z " fill="#48C2C3" transform="translate(829.0850677490234,-0.3180580139160156)"/>
<path d="M0 0 C2.82218041 2.50441582 5.46679713 5.15615433 8.09765625 7.859375 C10.55667025 10.32824476 13.16132604 12.58362008 15.8046875 14.8515625 C17.96846902 16.74769857 20.07210019 18.69928717 22.17138672 20.66625977 C29.13421717 27.1634665 36.43812854 33.0936859 44.046875 38.81640625 C44.73555664 39.33493164 45.42423828 39.85345703 46.13378906 40.38769531 C57.04627807 48.55119924 68.26697186 55.9673852 80.046875 62.81640625 C80.76278809 63.23486816 81.47870117 63.65333008 82.21630859 64.08447266 C165.92488562 112.7010788 266.8397266 125.27195339 360.24668884 100.5717926 C406.99853607 87.94970904 451.24110568 66.14966119 489.046875 35.81640625 C489.58376953 35.3898877 490.12066406 34.96336914 490.67382812 34.52392578 C496.53739357 29.86144551 502.17136461 24.98343942 507.70703125 19.9375 C509.83492315 18.0085429 511.99408359 16.12604272 514.171875 14.25390625 C516.85078983 11.93715088 519.30288757 9.51502656 521.734375 6.94140625 C538.04743251 -9.46686366 561.53996099 -18.3484103 584.484375 -18.43359375 C615.87500096 -18.38844594 637.53194077 -3.87384077 659.12057495 17.75588512 C660.40979917 19.041581 660.40979917 19.041581 661.72506833 20.35325053 C664.09079649 22.71350407 666.45431505 25.07592978 668.81688371 27.43934332 C671.39517828 30.01746696 673.97634544 32.59271211 676.557127 35.16834575 C681.66646643 40.26840038 686.77313942 45.37111713 691.87897726 50.47467705 C697.99840665 56.59113372 704.12069853 62.70472221 710.24300915 68.81829465 C725.03467485 83.58916244 739.82119584 98.36517591 754.60687748 113.14203337 C761.60425294 120.13519712 768.60213292 127.12785594 775.60002817 134.12049954 C799.56570205 158.06829047 823.52993275 182.0175247 847.49038696 205.97053814 C848.99322401 207.47290044 850.49606163 208.97526217 851.99889982 210.47762333 C852.74414604 211.22263318 853.48939226 211.96764303 854.25722171 212.73522893 C858.03280284 216.50960891 861.80839113 220.28398174 865.58398438 224.05834961 C866.33324864 224.80737372 867.0825129 225.55639784 867.85448214 226.32811965 C892.15598146 250.62172328 916.46524129 274.90754201 940.77903315 299.18884244 C966.50032157 324.87582135 992.21429838 350.57009759 1017.920084 376.27259094 C1020.74261302 379.09470243 1023.56517305 381.9167829 1026.38775635 384.7388401 C1027.08272496 385.43368552 1027.77769356 386.12853094 1028.49372183 386.84443228 C1039.66813058 398.01651092 1050.84918447 409.18191603 1062.03266793 420.34490984 C1073.27473606 431.56670749 1084.50938138 442.79589389 1095.73656797 454.03258052 C1102.40241969 460.70364165 1109.07374226 467.36911842 1115.75313964 474.02661751 C1120.21989186 478.47983315 1124.6792715 482.9403435 1129.13285194 487.40673177 C1131.66677505 489.9475322 1134.20365084 492.48516339 1136.74959922 495.01391896 C1158.92381955 517.04791805 1175.2667905 538.40762011 1175.546875 570.81640625 C1175.46555821 581.06744987 1174.4885262 590.13475195 1171.046875 599.81640625 C1170.41072266 601.60884766 1170.41072266 601.60884766 1169.76171875 603.4375 C1161.59675686 624.20243093 1145.58905902 641.36430468 1125.25 650.59375 C1102.46657375 660.36305099 1077.48047844 662.15357322 1054.234375 653.06640625 C1034.3026423 644.770955 1019.58507532 628.6482117 1004.62760925 613.63764954 C1002.78540441 611.79631802 1000.94275964 609.95542656 999.09971601 608.11493462 C995.11070563 604.13004494 991.1253779 600.14150265 987.1425209 596.1504631 C981.22025988 590.21606922 975.29220826 584.28748465 969.36300338 578.36002955 C959.38648158 568.38612811 949.41460011 558.40759966 939.44539452 548.42638588 C929.58079081 538.54993057 919.71410598 528.67556192 909.84465981 518.80394554 C909.23001545 518.18916371 908.6153711 517.57438187 907.98210115 516.94097029 C904.86036707 513.8185595 901.73859601 510.69618568 898.61681072 507.5738261 C876.53016788 485.48298727 854.44816126 463.38751946 832.36889648 441.28930664 C810.92496243 419.82699109 789.47891913 398.36678675 768.0300293 376.90942383 C767.36837831 376.24750979 766.70672733 375.58559575 766.02502631 374.90362372 C759.38019076 368.25615103 752.73531244 361.60872109 746.09040279 354.96132247 C732.55508194 341.42092978 719.02004648 327.88025183 705.48518372 314.33940125 C704.8629314 313.71687435 704.24067909 313.09434746 703.59957065 312.45295612 C662.07722216 270.91221975 620.56152616 229.36483493 579.046875 187.81640625 C577.95552246 188.43410889 576.86416992 189.05181152 575.73974609 189.68823242 C575.12586029 190.03569016 574.51197449 190.38314789 573.87948608 190.74113464 C571.05002241 192.40130246 568.37429079 194.27059421 565.671875 196.12890625 C493.15152426 245.07010832 408.84135497 275.08988114 322.046875 284.81640625 C321.08587891 284.92823242 320.12488281 285.04005859 319.13476562 285.15527344 C233.25871396 294.89854773 142.84620082 281.42420724 -28.953125 202.81640625 C-29.54480469 202.43677734 -30.13648438 202.05714844 -30.74609375 201.66601562 C-34.19040749 199.44209453 -37.5801533 197.14682306 -40.953125 194.81640625 C-41.90300293 194.16188477 -41.90300293 194.16188477 -42.87207031 193.49414062 C-52.84493307 186.60312091 -62.52374906 179.43312194 -71.953125 171.81640625 C-72.88382812 171.06875 -73.81453125 170.32109375 -74.7734375 169.55078125 C-87.0047339 159.63736901 -98.83004822 149.32562816 -110.22509766 138.4609375 C-111.32453486 137.41462371 -112.42795641 136.3724689 -113.53662109 135.3359375 C-130.36499521 119.59344275 -142.28148313 98.50682932 -143.19140625 75.05078125 C-143.69739053 50.00799376 -137.89229184 27.88990476 -120.3125 9.21875 C-119.53390625 8.42597656 -118.7553125 7.63320312 -117.953125 6.81640625 C-117.21578125 6.05457031 -116.4784375 5.29273438 -115.71875 4.5078125 C-84.83566002 -25.39074944 -33.0859011 -26.98795217 0 0 Z " fill="#717785" transform="translate(565.953125,1082.18359375)"/>
<path d="M0 0 C36.15957361 -0.90105113 67.99542216 12.64281734 94.22338867 37.20239258 C117.5883888 59.80281632 130.31121643 91.73712729 131.14648438 124.00830078 C131.4465605 161.04724242 116.94540572 193.4342843 91.26953125 219.74609375 C65.94096127 243.72829456 32.13719607 254.2089616 -2.16015625 253.4375 C-35.40383085 252.18488499 -66.39677752 237.19199833 -89.20703125 213.16015625 C-113.56716857 186.0516138 -123.89401194 152.21371291 -122.20703125 116.16015625 C-119.9650755 86.2556441 -106.56800355 59.7540594 -86.20703125 38.16015625 C-85.54445313 37.42152344 -84.881875 36.68289063 -84.19921875 35.921875 C-62.85752437 13.07895877 -30.62281501 1.52927578 0 0 Z " fill="#717785" transform="translate(921.20703125,825.83984375)"/>
</svg>
