<svg xmlns="http://www.w3.org/2000/svg" xmlns:xlink="http://www.w3.org/1999/xlink" version="1.1" width="841.89pt" height="595.276pt" viewBox="0 0 841.89 595.276">
<defs>
<clipPath id="clip_0">
<path transform="matrix(1,0,0,-1,0,595.276)" d="M0 595.276H841.89V0H0Z"/>
</clipPath>
<clipPath id="clip_1">
<path transform="matrix(1,0,0,-1,0,595.276)" d="M0 595.276H841.89V0H0Z"/>
</clipPath>
</defs>
<g id="layer_1" data-name="">
<g clip-path="url(#clip_0)">
<path transform="matrix(1,0,0,-1,553.1461,499.3991)" d="M0 0-54.472-.235-159.888 156.612-159.754 156.958-143.594 201.139-137.645 216.89-111.68 285.653-127.555 202.053-121.68 193.416C-115.521 184.35-109.632 175.464-103.981 166.73-103.174 165.471-102.352 164.211-101.559 162.951-79.705 128.944-61.632 97.22-46.146 66.188L-44.905 66.783C-48.552 103.407-50.376 137.747-51.243 175.99-51.273 177.291-51.303 178.592-51.348 179.907-51.647 194.592-51.811 209.887-51.901 226.108L-52.753 392.313-2.003 392.534Z" fill="#00779d"/>
<path transform="matrix(1,0,0,-1,404.9326,276.7537)" d="M0 0-.134-.374-16.518-48.014-22.542-64.996-48.866-139.14-32.558-48.926-38.388-39.568C-44.501-29.747-50.346-20.12-55.952-10.673-56.759-9.298-57.566-7.938-58.359-6.577-80.034 30.256-97.957 64.607-113.279 98.181L-114.52 97.553C-111.067 57.985-109.407 20.883-108.735-20.419-108.72-21.825-108.69-23.23-108.66-24.65-108.436-40.51-108.346-57.028-108.331-74.548V-254.048H-159.081V169.889H-104.609Z" fill="#4cc9f5"/>
</g>
<text fill="#231f20" xml:space="preserve" transform="matrix(1.0789113 0 -0 .9268602 0 595.276)" font-size="40.141115" font-family="MicrosoftTaiLe" font-weight="bold"><tspan y="-69.78572" x="336.26069 367.97215 396.19136">NAD</tspan></text>
<text fill="#231f20" xml:space="preserve" transform="matrix(1 0 -0 1 0 595.276)" font-size="35.8971" font-family="MicrosoftTaiLe"><tspan y="-64.6807" x="460.7808 479.84217 498.61634 511.10853 528.3032 536.9903 553.57479">Service</tspan></text>
<g clip-path="url(#clip_1)">
<path transform="matrix(1,0,0,-1,0,595.276)" d="M367.758 64.681H304.573V90.92H367.758Z" fill="#231f20"/>
</g>
</g>
</svg>
