<?xml version="1.0" encoding="UTF-8"?>
<svg id="Layer_1" data-name="Layer 1" xmlns="http://www.w3.org/2000/svg" viewBox="0 0 82.62 60.96">
  <path d="m12.44,36.82l-5.44,16.48H0L17.81.9h8.17l17.88,52.41h-7.23l-5.6-16.48H12.44Zm17.18-5.29l-5.13-15.09c-1.17-3.42-1.94-6.53-2.72-9.56h-.16c-.78,3.11-1.63,6.3-2.64,9.49l-5.13,15.16h15.78Z" style="fill: #717785;"/>
  <path d="m80.68,60.96c-7.08-1.87-14-3.97-20.06-6.07-1.09-.39-2.18-.78-3.19-.78-12.44-.47-23.09-9.64-23.09-26.52S44.6,0,58.75,0s23.48,11.04,23.48,26.52c0,13.45-6.22,22.08-14.93,25.12v.31c5.21,1.32,10.89,2.57,15.32,3.34l-1.94,5.68Zm-5.6-34.14c0-10.5-5.44-21.31-16.56-21.31s-17.03,10.58-16.95,21.93c-.08,11.12,6.07,21.15,16.64,21.15s16.87-9.8,16.87-21.77Z" style="fill: #48c2c3;"/>
</svg>